<?xml version="1.0" encoding="utf-8"?>
<!-- Generator: Adobe Illustrator 19.0.1, SVG Export Plug-In . SVG Version: 6.00 Build 0)  -->
<svg version="1.1" id="Calque_1" xmlns="http://www.w3.org/2000/svg" xmlns:xlink="http://www.w3.org/1999/xlink" x="0px" y="0px"
	 viewBox="0 0 465.3 175.9" style="enable-background:new 0 0 465.3 175.9;" xml:space="preserve">
<style type="text/css">
	.st0{fill:none;}
	.st1{fill:#FFFFFF;}
	.st2{fill:#27509B;}
	.st3{fill:#FCE500;}
	.st4{display:none;fill:#27509B;}
	.st5{font-family:'FrutigerLTStd-BoldItalic';}
	.st6{font-size:14.216px;}
	.st7{letter-spacing:3;}
</style>
<rect x="41.1" y="209.6" class="st0" width="466.9" height="175.8"/>
<rect x="-0.1" y="0.2" class="st0" width="466.9" height="175.8"/>
<g>
	<g>
		<g>
			<polygon class="st1" points="406.6,56.9 56.9,56.9 56.9,119.1 408.4,119.1 408.4,56.9 			"/>
			<rect x="58.7" y="58.7" class="st2" width="347.9" height="58.6"/>
			<polygon class="st3" points="342,105.8 58.7,105.8 58.7,109.5 340.6,109.5 			"/>
			<g>
				<path class="st1" d="M163.5,72.3l-9.3,14.1c0,0,0.6-7.4,0.7-9.1c0.1-1.3-0.1-4.9-3.3-4.9c-3.2,0-14.7,0-14.7,0l-9.6,26.2h11.5
					l7-18.9l-1.5,18.9h10.2L167,79.9l-6.8,18.6h11.6l9.6-26.2H163.5z"/>
				<path class="st1" d="M226.1,98c-0.6,0.1-4.9,0.9-9.6,1.1c-8.2,0.2-15.4-3.1-15.5-9c-0.1-10.3,10.3-15.9,18-17.5
					c3.4-0.7,10.1-1.5,16.7,0.2l-3.8,9.2c-1.1-2.5-3.9-2.6-5.1-2.6c-2.8-0.1-5.1,0.7-6.8,1.5c-3.9,1.8-7.3,7.5-1.8,9.7
					c3,1.2,6.9,0.2,11-0.4L226.1,98z"/>
				<polygon class="st1" points="343.9,98.5 331.2,98.5 340.9,72.3 353.5,72.3 				"/>
				<polygon class="st1" points="191.7,98.5 179.1,98.5 188.7,72.3 201.4,72.3 				"/>
				<polygon class="st1" points="260.1,72.3 256.6,81.8 250.2,81.8 253.7,72.3 241.6,72.3 232,98.5 244.1,98.5 247.4,89.6 
					253.7,89.6 250.5,98.5 262.5,98.5 272.2,72.3 				"/>
				<polygon class="st1" points="318.2,89.8 324.6,72.3 312.3,72.3 302.6,98.5 327.4,98.5 330.6,89.8 				"/>
				<path class="st1" d="M384.8,72.3l-6.6,18c0.1-1.8,0.5-8.9,0.7-13.1c0.1-1.7-0.3-3-1.1-3.8c-1-1-2.3-1-2.3-1h-14.7l-9.6,26.2
					h10.7l6.8-18.5l-0.8,18.5h17.9l9.6-26.2H384.8z"/>
				<polygon class="st1" points="284.3,91.4 285.3,88.5 299.1,88.5 301.5,82.1 287.7,82.1 288.7,79.2 303.2,79.2 305.7,72.3 
					279.3,72.3 269.7,98.5 296.4,98.5 299,91.4 				"/>
			</g>
			<g>
				<g>
					<path d="M128.4,84.2c0.7-1.1-0.1-3.4-1.7-5.3c-1.5-1.8-3.4-2.2-3.6-3.1c1.9-3.9-0.1-7.3-3.1-8.6c0.1-1.9-0.6-3.7-2.2-5.1
						c0.7-1.5,1.5-5.9-1.8-8.7c1.3-5.5-4.2-8.5-7.2-8.8c-1.4-1-3.5-1.7-6.1-2c1.8-2.8,1.4-6.5-0.9-8.6c0.1-3-1.9-5.9-5-6.9
						c-1-2.5-6.6-2.1-7.3,0.2c-3.2,1.2-5.2,4.8-4.9,8c-2,2.1-1.9,5.8-0.1,8.1c-1.7,0-4.1,0.4-5.8,1.1c0,0,0,0,0,0c0,0-0.1,0-0.1,0
						c-1.4-0.7-2.9-0.9-4.5-0.7c-0.4-0.3-1.4-0.7-2.1-0.9c-0.6-0.9-1.4-1.6-2.3-2.1c-0.4-1.5-1.7-2.7-2.9-3.3
						c0.1-1.1-0.3-2.6-0.7-3.2c-0.7-1.2-0.5-3-0.3-3.2c0.8-1,0.1-1.9-0.3-2.2c-1.8-1.8-3.5-0.8-4.1,0c-1.7-3-3.6-3.8-4.8-3.4
						c-1.5-1.2-3.9-0.5-3.9,1c-1,0.7-1.7,1-0.1,3.9c-0.3,5.9,0.3,7.7,4.2,10.8c-1.2,1.2-1.9,3.8-0.7,5.7c-0.3,2.8,1.2,5.6,3.1,7
						c0.5,4.1,4.5,6.5,7.1,7c1.7,2.5,4.3,3.8,6.7,4c0.1,1.1,0.6,2.2,1.3,3.3c-0.6,2.3-0.6,4.5,0.2,6.4c-1.8,2-2.5,4.9-1.6,7.9
						c-2.1,2.5-2.9,6.5-1.4,9.8c0,0-0.7,1-0.9,1.8c-1.5,0.7-2.9,2.4-3.7,4.3c-0.6,1.6-0.4,3.8,0,5.5c-2.3,1.9-3.7,6.9,0.5,10.9
						c-0.9,2.8-2.9,5.3-5.2,8.3c-1.6,2.1-1.9,3.2,0,5.7c1.5,1.9,4.1,3.4,6.3,3.5c4.3,0.2,7.2-0.8,7.7-3.8c0.3-1.8-0.9-5.5-1-6.4
						c-0.1-0.9,0.2-2.3,1.1-4.6c3.9-0.9,5.9-3.8,6.1-6.5c2.9-1.6,5-5,4-8.6c0.5-0.7,0.7-1.1,1-2.1c0,1.6,1.1,2.7,1.6,3.7
						c-1.7,4.1,0.5,7.9,3,9.5c-4.3,6.1,0.3,9.1,1.6,10.3c1.5,1.5,1.7,4.1,4.1,5c2.1,0.8,8.9,0,10.2-2.8c0.3-0.7,0.6-1.6,0.3-2.1
						c0.1-2-1.3-3.5-3.6-4.9c-2.6-1.5-2.5-1.1-3.8-5c4-1.9,4.7-6.5,4.5-8.4c2.8-3.5,2.6-6.5,1.1-8.6c0.5-1.4,0.4-2.8,0.1-3.9
						c2.3-2.2,3.4-5.4,2.5-8.8c1.4-2.1,1.9-4.4,1.3-6.9c1.2,1.8,3.1,2.6,5.3,2.5c0,0,0.2,0.7,0.3,0.9c-0.6,1.2-0.3,2.6,1.3,3.8
						c0.1,0.5,0.4,1,0.9,1.3c0,0.6,1.4,2.9,3.1,1.6c0,0,1.9-1.2,2-1.3C125.1,87.7,128.7,86.7,128.4,84.2z"/>
					<path class="st1" d="M112,72.7c4.5-0.4,8.6-5.3,4.6-9.1c-0.6,0.8-1.8,1.8-2.6,2.1c-0.3,1.9-1.4,3.6-2.3,4.5
						C111.9,70.8,112,72.6,112,72.7z"/>
					<path class="st1" d="M119.3,69c-1.1,2.9-4,4.5-7.3,4.9c-0.5,2.4,2.6,5.9,7.2,3.8C122.3,76.2,123.6,70.9,119.3,69z"/>
					<path class="st1" d="M117.9,81.4c-0.4,0.4-0.3,1.4,0.3,1.7c0-0.1,0.3-1.1,0.5-1.5C118.5,81.3,118.1,81.3,117.9,81.4z"/>
					<path class="st1" d="M120.9,83.6c-0.3-0.5-0.1-1.1-1-1.4c-0.9-0.3-0.9,2.5-0.3,2.4C119.9,84.2,120.3,83.9,120.9,83.6z"/>
					<path class="st1" d="M122,84c-1.2,0.4-2.1,1.2-1.6,2c0.2,0.3,0.4,0.3,1.1-0.1c0.5-0.3,1.2-0.9,1.3-1C122.5,84.4,122,84,122,84z
						"/>
					<path class="st1" d="M123.2,78.6c-0.4-0.2-1.1-0.8-1.4-1.3c-0.9,1-2.9,1.9-3.7,2.1c0,0.1,0.3,1,0.4,1.2c0.4,0.1,0.8,0.4,1,0.7
						c0.5-0.1,1.7,0.1,2,1.4c0.5,0.4,1.6,0.8,1.9,1.2c1.4,1.9,2.5,1.5,2.8,1.3c1.3-1-0.5-1.8-1.4-3c-0.4-0.5-1.9-2.6-1.8-3
						c0-0.2,0.4-0.1,0.6,0.3c0.1,0.2,2.1,2.5,3.1,3.3C125.8,79.7,123.2,78.6,123.2,78.6z"/>
					<path class="st1" d="M95.3,74.4c16.8-0.2,18.8-10.2,16.6-14c-5.1,5.4-22.3,8.4-30.8,1.7c-1.6,1.7-3.7,2.3-5.5,2.5
						C76.1,69.7,85,74.5,95.3,74.4z"/>
					<path class="st1" d="M83.9,53.5c0.3,3.2-1.1,6.3-1.8,7.4c1.5,1.2,4.8,3.5,12.1,3.6c10.9,0.2,22.6-5.2,16-14.1
						C107.3,54,93.5,57.2,83.9,53.5z"/>
					<path class="st1" d="M69.4,52.3c2.6-2.5,2.8-5.6,1.5-7.8c-0.3-0.5-0.6-0.9-1.1-1.3c-0.7,4.7-7.1,8.2-11.3,5.2
						C60,54.8,66.6,54.9,69.4,52.3z"/>
					<path class="st1" d="M74.7,56.7c3.8-4.3,0-11-1.9-11.4c1.3,6.6-5.3,11.7-11.1,9.2C63.2,58.5,70.1,61.9,74.7,56.7z"/>
					<path class="st1" d="M69.3,60.8c3.4,3.6,12.4,3.3,13-5c0.4-5.6-2.1-8.7-6.1-9.8C80.9,54.7,75.4,60.7,69.3,60.8z"/>
					<path class="st1" d="M76.5,69.6C74.9,79.2,87.6,82.3,95.3,82c12.8-0.5,15.6-6.7,15-10.4C102.1,78,84.8,77.3,76.5,69.6z"/>
					<path class="st1" d="M83.1,89.7c6.8,1.6,12.3-1.7,12.2-6.3c-3.3,0-14-0.1-19.1-7.3C72.6,81.1,76.7,88,83.1,89.7z"/>
					<path class="st1" d="M92.4,90c-6.2,3.2-14.7,0.9-17.9-5.7c-4.5,7.3,3.2,13.8,8.7,13.5C90,97.4,92.1,93.1,92.4,90z"/>
					<path class="st1" d="M73.3,93.9c-2.2,3.9,0.5,8.1,3.3,9.2c6,2.3,10-1.6,9.8-4.5C81.5,99.7,76.6,98.2,73.3,93.9z"/>
					<path class="st1" d="M68.5,105.7c-2.7,2.4-0.8,8.5,3.4,10c6,2.1,8.6-1.9,9.1-4.2C79.3,111.8,72.3,113.3,68.5,105.7z"/>
					<path class="st1" d="M76.3,104.2c-3.2-1.6-5.1-4.1-5.3-7.5c-4.5,4.6-0.8,11.8,3.5,13.3c8.5,2.9,11.5-4.2,10.8-6.4
						C81.9,105.9,77.8,105,76.3,104.2z"/>
					<path class="st1" d="M106.7,125.2l0.2,0.2c-0.6,1.4-5.8,2.6-7.8,1.6c-2.5-1.1-2.1-2.5-3.6-4c-3.5-3.3-3-4.7-2.5-6.5
						c0.2-0.8,0.7-1.4,1.4-2.3c2.3,0.9,3.4,0.8,5.5,0.2c0,0.2,0.2,0.7,0.2,0.9c-1.6,0.2-2.9,0.5-2.9,0.5l0.4,1.2
						c0,0,1.3-0.3,2.8-0.5c0,0,0.3,0.9,0.4,1.2c-1.4,0.1-2.7,0.5-2.7,0.5l0.4,1.1c0,0,1.8-0.6,3.3-0.4c1.4,1.3,7.2,2.8,4.4,5.7
						c-1.1,1.2-3.9,1.6-5.9,1.5l-0.1,0.3C100.6,126.9,104.6,127.1,106.7,125.2z"/>
					<path class="st1" d="M103.9,106.9c-1.3,1.1-3.4,1.9-6,1.9c-2.9-0.1-5-1.3-6.8-3.3c-1.1,5.3,2.3,7.8,6,8
						C103.9,113.8,104.1,107.7,103.9,106.9z"/>
					<path class="st1" d="M97.9,107.5c7.1,0,9.4-6,8-8.6c-4.1,5-13.6,4-15.4-2.2C87.9,101.1,92,107.5,97.9,107.5z"/>
					<path class="st1" d="M98.8,100.9c3.6,0,7.5-2.5,6.6-6.9c-4,2.6-9.2,2.4-12.6-0.2c-0.3,0.6-0.8,1.4-1.2,1.9
						C92,98.9,95.4,100.9,98.8,100.9z"/>
					<path class="st1" d="M94.4,88.6c-0.1,0.1-0.3,0.2-0.4,0.4c0,1.1-0.3,2.8-0.7,3.8c4.9,4.2,15.3,1.7,14.7-6.9
						C104.4,89.3,98.6,90.1,94.4,88.6z"/>
					<path class="st1" d="M96.8,83.4c0,1.6-0.6,3.1-1.5,4.3c6.4,1.9,14.4-1.4,13.9-9C107.3,80.7,103.3,83.1,96.8,83.4z"/>
					<path class="st1" d="M64.8,47.6c4.7-2.1,4.4-7.2,1.5-8.3c-0.6,0.6-0.5,2.2-0.5,2.5c0.1,0.8-1.1,1.2-1.3,1
						c-0.4-0.5,0.6-1.1,0.2-2.3c-0.4-1.1,0.8-1.7,0.8-3.4c0-1-0.8-2.7-1-3c-0.4-1-0.4-3,0.2-4c-0.4-0.4-1.1-1-1.7,0
						c-0.8,1.3-0.5,2.9,0.1,4.2c-0.1,0-0.8,0-1.3,1.4c0,0-0.4,0.5-0.4,0.5l-0.3,0c-0.2-1,0.1-1.6,0.4-2.2c-0.1-0.2-0.4-1.2-0.4-2.8
						c-0.8-2-2.3-4-3.4-4.2c0.9,1.3,2.5,4.4,2.7,4.8c0.4,0.9-0.4,1-0.4,1c-1.2-2.5-2.5-4.8-3.6-5.8c-0.7-0.7-1.4-0.9-1.7-0.5
						c0.3,0.1,0.7,0.5,1,0.8c1.1,1.3,3.3,5.9,3.3,5.9s-0.2,0.2-0.4,0.2c-0.4-0.1-0.8-0.7-1.4-2c-0.6-1.1-1.7-2.8-2.3-3.4
						c-0.5-0.6-0.9-0.4-1.2-0.1c0.3,0.6,0.7,1.2,0.8,1.7c0.8-0.2,1.9,0.7,2,1.5c0.1,0.8,0.4,3,0.9,3.7c-0.2,0.1-0.7,0.4-0.7,0.4
						c-0.5-0.7-0.9-3.1-1-4c0-0.2-0.3-0.7-0.8-0.8c-0.3-0.1-0.3,0.1-0.3,0.3c-0.2,4.9,0.1,6.2,4.5,9.6c0.3,0.2,0.8,0.8,1.1,1.5
						c0.3,0.7,0.9,1.4,1.9,1.3l0.4,0.4c-0.9,0.8-2.4,0.3-2.7-0.1c-0.3-0.3-1-1.4-1-1.4C55.8,45.4,59.9,49.8,64.8,47.6z"/>
					<path class="st1" d="M69.8,115.9c-1.9,4-3.5,5.6-5.6,8.6c-1.3,1.8-0.8,2.6,0.1,3.8c1.7,2.1,4.8,3.1,7.1,2.5l0-0.3
						c-2.7,0.3-5.1-0.8-6.4-2.6l0.2-0.2c3.2,2.5,7.4,1.8,9,1c0.4-0.2,0.8-0.8,0.7-1.4c-0.1-1.3-0.9-3.6-1-4.8c-0.1-1,0.3-2.8,1-4.9
						C73.5,117.5,70.6,117.1,69.8,115.9z"/>
					<path class="st1" d="M110.9,48.9c2.3,1.5,2.7,4.7,2.8,6c2.2-4.4-1.1-7-2.9-7.6C111,47.8,111,48.7,110.9,48.9z"/>
					<path class="st1" d="M114.3,63.4c4.3-2.6,1.5-7.8,0.8-8.3c-0.2,0.5-0.7,1.9-2.3,3.8C113.8,60,114.3,61.6,114.3,63.4z"/>
					<path class="st1" d="M83.6,51.8c3.1,1.4,6.5,1.9,9.9,1.9c9.1,0,15.4-2.6,15.9-5.3c0.4-2.3-3.8-3.7-8.3-3.9
						c-0.7,0.7-1.6,1-1.8,1c-0.3,0-0.5-0.2-0.2-0.4c0.7-0.4,1.4-0.9,0.6-2.2c0.5-0.1,2.1-0.7,2.3-3.5c0.1-2.3-1.1-3.7-2.1-4.3
						c0,0-0.4-0.4,0.1-0.5c0.3-2.8-1.6-5.1-5.1-5.8l0-0.3c0.1,0,0.2-0.2,0.2-0.3c-0.1-0.7-2.6-1-3.6,0c-0.2,0.2,0.5,0.4,0.7,0.4
						c0.3,0,0.4,0.3,0.1,0.3c-2,0-5.7,1.7-5.5,6.5c0.1,0,1.2-0.3,1.6-0.2c0.3,0.1,0.2,0.4,0,0.4c-3.3,0.3-4.6,6-0.1,8
						c0,0,0.2,0.1-0.1,0.3c-0.5,0.3-0.9,1-0.1,1.5c0.3,0.2,0.5,0.4,0.4,0.7c-0.1,0.3-0.6,0.3-1,0c-2.3-1.1-4.9-0.5-6.9,0.1
						C81.9,47.5,83,49.6,83.6,51.8z"/>
					<path d="M60.5,37c-0.1,0.1-0.8-0.4-1.2-0.6C58.7,36,58,36.1,58,35.9c0-0.1,0.6-0.3,1.1-0.3c0.4,0,0.8,0.3,1.1,0.3
						C60.4,36.2,60.7,36.8,60.5,37z"/>
					<path d="M72.3,122.4c-1.2-0.3-2.7-0.5-3.6-0.6l0-1.2c1,0,2.7,0.2,3.9,0.6L72.3,122.4z"/>
					<path d="M73,120c-1.6-0.5-1.9-0.5-3.7-0.6l0.1-1.2c1.9,0.1,2.3,0.1,4,0.7L73,120z"/>
				</g>
				<g>
					<path d="M97.9,39.4c-0.1,0-0.3,0.1-0.4,0.2c-3.2-0.6-4.2,0.3-5.8,0.2c0-0.2-0.1-0.5-0.3-0.5c-0.1,0-0.2,0.2-0.3,0.3
						c-0.4,0.7-0.6,1-0.4,1.2c0.2,0.2,0.4-0.1,0.6-0.4c0.3,0,0.9,0,1.5,0.4c0.5,0.4,1.6,1.7,2.7,1.2c0.8-0.4,1.5-1.7,2.1-1.7
						c0.3,0,0.6,0,0.7,0C98.5,40.3,98.2,39.3,97.9,39.4z M95.5,41.5c-1,0.5-1.5-0.8-2.5-1.2c0.9-0.2,2.6-0.4,3.9-0.2
						C96.6,40.4,95.8,41.3,95.5,41.5z"/>
					<g>
						<path d="M96.8,31.4c-1.1,0.1-1.9,1.6-1.8,3.3c0.1,1.1,0.5,2,1.1,2.5c0.3,0.3,0.7,0.4,1.1,0.4c1.1-0.1,1.9-1.6,1.8-3.3
							c-0.1-1.1-0.5-2-1.1-2.6C97.6,31.5,97.2,31.3,96.8,31.4z"/>
						<path class="st1" d="M98.1,36.3C98.1,36.3,98.1,36.3,98.1,36.3C98.1,36.3,98.1,36.3,98.1,36.3c0.3-0.5,0.4-1.2,0.4-1.9
							c-0.1-0.9-0.4-1.7-0.9-2.1c-0.2-0.2-0.5-0.3-0.7-0.2c-0.8,0.1-1.3,1.3-1.2,2.6c0,0.1,0,0.2,0,0.4c0,0,0,0,0,0c0,0,0,0,0,0
							c0.1-0.9,0.6-1.6,1.2-1.7c0.7,0,1.3,0.8,1.3,1.9C98.3,35.6,98.2,36,98.1,36.3z"/>
					</g>
					<g>
						<path d="M91.9,31.5c-1.2,0.1-2.1,1.6-2,3.3c0,1.1,0.4,2,1,2.6c0.4,0.3,0.8,0.5,1.2,0.5c1.2-0.1,2.1-1.5,2-3.3
							c0-1.1-0.4-2.1-1-2.6C92.7,31.6,92.3,31.5,91.9,31.5z"/>
						<path class="st1" d="M93.2,36.1C93.2,36.1,93.2,36.1,93.2,36.1C93.3,36.1,93.3,36.1,93.2,36.1c0.2-0.4,0.3-1,0.3-1.5
							c0-0.9-0.3-1.7-0.8-2.1c-0.2-0.1-0.4-0.3-0.8-0.3c-0.8,0.1-1.5,1.3-1.5,2.7c0,0.6,0.2,1.1,0.4,1.5c0,0,0,0,0,0c0,0,0,0,0,0
							c-0.1-0.2-0.1-0.5-0.1-0.7c-0.1-1.1,0.5-2,1.2-2c0.7,0,1.3,0.8,1.3,1.9C93.3,35.7,93.3,35.9,93.2,36.1z"/>
					</g>
				</g>
			</g>
		</g>
	</g>
</g>
<text transform="matrix(0.9848 0 -0.1736 0.9848 114.4561 132.759)" class="st4 st5 st6 st7">La millor manera d’avançar</text>
</svg>
